<svg width="42" height="41" viewBox="0 0 42 41" fill="none" xmlns="http://www.w3.org/2000/svg">
<path d="M21 0.166664C18.2641 0.166664 15.5551 0.705534 13.0274 1.75251C10.4998 2.79948 8.20318 4.33405 6.26863 6.26861C2.36162 10.1756 0.166687 15.4747 0.166687 21C0.166687 30.2083 6.14585 38.0208 14.4167 40.7917C15.4584 40.9583 15.7917 40.3125 15.7917 39.75C15.7917 39.2708 15.7917 37.9583 15.7917 36.2292C10.0209 37.4792 8.79169 33.4375 8.79169 33.4375C7.83335 31.0208 6.47919 30.375 6.47919 30.375C4.58335 29.0833 6.62502 29.125 6.62502 29.125C8.70835 29.2708 9.81252 31.2708 9.81252 31.2708C11.625 34.4375 14.6875 33.5 15.875 33C16.0625 31.6458 16.6042 30.7292 17.1875 30.2083C12.5625 29.6875 7.70835 27.8958 7.70835 19.9583C7.70835 17.6458 8.50002 15.7917 9.85419 14.3125C9.64585 13.7917 8.91669 11.625 10.0625 8.8125C10.0625 8.8125 11.8125 8.25 15.7917 10.9375C17.4375 10.4792 19.2292 10.25 21 10.25C22.7709 10.25 24.5625 10.4792 26.2084 10.9375C30.1875 8.25 31.9375 8.8125 31.9375 8.8125C33.0834 11.625 32.3542 13.7917 32.1459 14.3125C33.5 15.7917 34.2917 17.6458 34.2917 19.9583C34.2917 27.9167 29.4167 29.6667 24.7709 30.1875C25.5209 30.8333 26.2084 32.1042 26.2084 34.0417C26.2084 36.8333 26.2084 39.0833 26.2084 39.75C26.2084 40.3125 26.5417 40.9792 27.6042 40.7917C35.875 38 41.8334 30.2083 41.8334 21C41.8334 18.2641 41.2945 15.555 40.2475 13.0274C39.2005 10.4998 37.666 8.20316 35.7314 6.26861C33.7969 4.33405 31.5002 2.79948 28.9726 1.75251C26.445 0.705534 23.7359 0.166664 21 0.166664Z" fill="#A5D0D5"/>
</svg>
